<svg xmlns="http://www.w3.org/2000/svg" version="1.1" xmlns:xlink="http://www.w3.org/1999/xlink" xmlns:svgjs="http://svgjs.com/svgjs" width="512" height="512" x="0" y="0" viewBox="0 0 512 512" style="enable-background:new 0 0 512 512" xml:space="preserve" class=""><g><linearGradient xmlns="http://www.w3.org/2000/svg" id="id0" gradientUnits="userSpaceOnUse" x1="67.83" x2="474.19" y1="82.42" y2="389.98"><stop offset="0" stop-color="#3b5f9e"></stop><stop offset="1" stop-color="#178cc8"></stop></linearGradient><g xmlns="http://www.w3.org/2000/svg" id="Layer_x0020_1"><g id="_1639466985120"><path d="m256 0c141.39 0 256 114.61 256 256s-114.61 256-256 256-256-114.61-256-256 114.61-256 256-256z" fill="url(#id0)" data-original="url(#id0)" class=""></path><g fill="#fff"><path d="m144.36 313.84v-49.14c14.12 0 52.3-2.15 63.81 3.12 16.58 7.59 15.45 34.92-.38 42.77-11.16 5.43-49.54 3.25-63.43 3.25zm0-120.31c16.28 0 47.3-2.05 61.9 2.88 12.85 5.34 13.19 26.65 2.4 33.2-11.96 7.31-49.22 4.57-64.3 4.57zm72.35 149.81c25.47-5.25 42.09-27.21 42.09-53.15 0-20.31-8.91-36.15-28.47-43.26 15.9-8.13 22.6-19.46 22.6-37.64 0-33.55-25.17-47.31-56.24-47.77h-89.09v184.33c30.76 0 80.22 3.54 109.11-2.51z" fill="#ffffff" data-original="#ffffff"></path><path d="m336.75 235.31c17.99 0 29.42 10.98 30.64 28.88h-61.41c2.56-17.57 12.28-28.88 30.77-28.88zm1.27 115.17c26.57 0 61.03-15.31 64.51-44.52h-36.39c-5.8 10.96-14.68 15.63-27.13 15.63-21.2 0-33.05-12.72-33.9-33.9h99.27c.68-45.25-14.51-81.77-67.65-81.77-44.47-.01-67.51 30.63-67.51 73.21 0 43.15 24.74 71.35 68.8 71.35z" fill="#ffffff" data-original="#ffffff"></path><path d="m374.47 172.11h-80.11v18.6h80.11z" fill="#ffffff" data-original="#ffffff"></path></g></g></g></g></svg>
