<svg xmlns="http://www.w3.org/2000/svg" version="1.1" xmlns:xlink="http://www.w3.org/1999/xlink" xmlns:svgjs="http://svgjs.com/svgjs" width="512" height="512" x="0" y="0" viewBox="0 0 512 512" style="enable-background:new 0 0 512 512" xml:space="preserve" class=""><g><linearGradient xmlns="http://www.w3.org/2000/svg" id="id0" gradientUnits="userSpaceOnUse" x1="67.83" x2="474.19" y1="82.42" y2="389.98"><stop offset="0" stop-color="#3b5f9e"></stop><stop offset="1" stop-color="#178cc8"></stop></linearGradient><g xmlns="http://www.w3.org/2000/svg" id="Layer_x0020_1"><g id="_1639424401936"><path d="m256 0c141.39 0 256 114.61 256 256s-114.61 256-256 256-256-114.61-256-256 114.61-256 256-256z" fill="url(#id0)" data-original="url(#id0)" class=""></path><path d="m219.17 394.15c0 1.97 1.6 3.57 3.57 3.57h50.9c1.97 0 3.56-1.6 3.56-3.57v-139.27h36.9c1.85 0 3.4-1.42 3.55-3.27l3.55-41.96c.18-2.08-1.46-3.87-3.55-3.87h-40.45v-29.77c0-6.98 5.66-12.63 12.64-12.63h28.43c1.98 0 3.57-1.6 3.57-3.57v-41.97c0-1.97-1.59-3.57-3.57-3.57h-48.04c-28.2 0-51.06 22.86-51.06 51.05v40.46h-25.44c-1.97 0-3.57 1.6-3.57 3.57v41.96c0 1.98 1.6 3.57 3.57 3.57h25.44z" fill="#ffffff" data-original="#ffffff" class=""></path></g></g></g></svg>
