<svg width="512" height="512" viewBox="0 0 512 512" fill="none" xmlns="http://www.w3.org/2000/svg">
<path d="M256 512C397.385 512 512 397.385 512 256C512 114.615 397.385 0 256 0C114.615 0 0 114.615 0 256C0 397.385 114.615 512 256 512Z" fill="url(#paint0_linear_210_5978)"/>
<path d="M310.386 113.778H201.728C153.259 113.778 113.891 153.145 113.891 201.614V310.272C113.891 358.741 153.259 398.108 201.728 398.108H310.386C358.855 398.108 398.222 358.741 398.222 310.272V201.614C398.222 153.145 358.855 113.778 310.386 113.778ZM366.478 310.386C366.478 341.333 341.333 366.592 310.272 366.592H201.614C170.667 366.592 145.408 341.447 145.408 310.386V201.728C145.408 170.781 170.553 145.522 201.614 145.522H310.272C341.219 145.522 366.478 170.667 366.478 201.728V310.386Z" fill="white"/>
<path d="M256 183.296C215.95 183.296 183.296 215.95 183.296 256C183.296 296.05 215.95 328.704 256 328.704C296.05 328.704 328.704 296.05 328.704 256C328.704 215.95 296.05 183.296 256 183.296V183.296ZM256 300.146C231.652 300.146 211.854 280.348 211.854 256C211.854 231.652 231.652 211.854 256 211.854C280.348 211.854 300.146 231.652 300.146 256C300.146 280.348 280.348 300.146 256 300.146Z" fill="white"/>
<path d="M334.241 191.266C340.939 190.181 345.489 183.87 344.403 177.172C343.317 170.474 337.007 165.924 330.309 167.01C323.611 168.096 319.061 174.406 320.147 181.104C321.233 187.803 327.543 192.352 334.241 191.266Z" fill="white"/>
<defs>
<linearGradient id="paint0_linear_210_5978" x1="61.0748" y1="450.925" x2="424.879" y2="87.1208" gradientUnits="userSpaceOnUse">
<stop stop-color="#FEE411"/>
<stop offset="0.0518459" stop-color="#FEDB16"/>
<stop offset="0.1381" stop-color="#FEC125"/>
<stop offset="0.2481" stop-color="#FE983D"/>
<stop offset="0.3762" stop-color="#FE5F5E"/>
<stop offset="0.5" stop-color="#FE2181"/>
<stop offset="1" stop-color="#9000DC"/>
</linearGradient>
</defs>
</svg>
