<svg xmlns="http://www.w3.org/2000/svg" version="1.1" xmlns:xlink="http://www.w3.org/1999/xlink" xmlns:svgjs="http://svgjs.com/svgjs" width="512" height="512" x="0" y="0" viewBox="0 0 512 512" style="enable-background:new 0 0 512 512" xml:space="preserve" class=""><g><linearGradient xmlns="http://www.w3.org/2000/svg" id="id0" gradientUnits="userSpaceOnUse" x1="67.83" x2="474.19" y1="82.42" y2="389.98"><stop offset="0" stop-color="#10658f"></stop><stop offset="1" stop-color="#007fc0"></stop></linearGradient><g xmlns="http://www.w3.org/2000/svg" id="Layer_x0020_1"><g id="_1639424913184"><path d="m256 0c141.39 0 256 114.61 256 256s-114.61 256-256 256-256-114.61-256-256 114.61-256 256-256z" fill="url(#id0)" data-original="url(#id0)" class=""></path><g fill="#fff"><path d="m129.29 388.01h54.47v-176.01h-54.47z" fill="#ffffff" data-original="#ffffff" class=""></path><path d="m156.27 188.95c17.79 0 32.22-14.55 32.22-32.48 0-17.94-14.43-32.48-32.22-32.48-17.8 0-32.22 14.54-32.22 32.48 0 17.93 14.42 32.48 32.22 32.48z" fill="#ffffff" data-original="#ffffff" class=""></path><path d="m270.86 295.62c0-24.75 11.39-39.49 33.2-39.49 20.03 0 29.66 14.15 29.66 39.49v92.39h54.22s0-64.29 0-111.44-26.72-69.95-64.04-69.95c-37.33 0-53.04 29.09-53.04 29.09v-23.71h-52.26v176.01h52.26s0-65.28 0-92.39z" fill="#ffffff" data-original="#ffffff" class=""></path></g></g></g></g></svg>
