<svg xmlns="http://www.w3.org/2000/svg" version="1.1" xmlns:xlink="http://www.w3.org/1999/xlink" xmlns:svgjs="http://svgjs.com/svgjs" width="512" height="512" x="0" y="0" viewBox="0 0 512 512" style="enable-background:new 0 0 512 512" xml:space="preserve" class=""><g><linearGradient xmlns="http://www.w3.org/2000/svg" id="id0" gradientUnits="userSpaceOnUse" x1="67.83" x2="474.19" y1="82.42" y2="389.98"><stop offset="0" stop-color="#d0272c"></stop><stop offset="1" stop-color="#e62027"></stop></linearGradient><g xmlns="http://www.w3.org/2000/svg" id="Layer_x0020_1"><g id="_1639277427040"><path d="m256 0c141.39 0 256 114.61 256 256s-114.61 256-256 256-256-114.61-256-256 114.61-256 256-256z" fill="url(#id0)" data-original="url(#id0)" class=""></path><path d="m235.16 304.61c-7.91 41.46-17.57 81.22-46.18 101.98-8.83-62.67 12.97-109.74 23.09-159.7-17.26-29.06 2.08-87.53 38.48-73.12 44.8 17.72-38.79 108.02 17.32 119.3 58.59 11.77 82.51-101.66 46.18-138.54-52.49-53.26-152.8-1.22-140.46 75.04 3 18.64 22.26 24.3 7.69 50.03-33.59-7.45-43.62-33.95-42.33-69.27 2.08-57.83 51.95-98.31 101.98-103.91 63.27-7.08 122.65 23.23 130.85 82.74 9.23 67.17-28.56 139.92-96.21 134.69-18.34-1.42-26.04-10.51-40.41-19.24z" fill="#ffffff" fill-rule="nonzero" data-original="#ffffff"></path></g></g></g></svg>
