<svg xmlns="http://www.w3.org/2000/svg" version="1.1" xmlns:xlink="http://www.w3.org/1999/xlink" xmlns:svgjs="http://svgjs.com/svgjs" width="512" height="512" x="0" y="0" viewBox="0 0 512 512" style="enable-background:new 0 0 512 512" xml:space="preserve" class=""><g><linearGradient xmlns="http://www.w3.org/2000/svg" id="id0" gradientUnits="userSpaceOnUse" x1="67.83" x2="474.19" y1="82.42" y2="389.98"><stop offset="0" stop-color="#aa2f33"></stop><stop offset="1" stop-color="#e7332f"></stop></linearGradient><g xmlns="http://www.w3.org/2000/svg" id="Layer_x0020_1"><g id="_1639423777200"><path d="m256 0c141.39 0 256 114.61 256 256s-114.61 256-256 256-256-114.61-256-256 114.61-256 256-256z" fill="url(#id0)" data-original="url(#id0)" class=""></path><path d="m296.1 259.72-62.8 34.45c-2.74 1.47-5.19-.5-5.19-3.6v-70.72c0-3.14 2.53-5.11 5.26-3.56l63.24 36.26c2.8 1.6 2.32 5.64-.51 7.17zm99.37-40.62c0-33.54-27.19-60.73-60.72-60.73h-157.49c-33.54 0-60.73 27.19-60.73 60.73v73.8c0 33.54 27.19 60.73 60.73 60.73h157.49c33.53 0 60.72-27.19 60.72-60.73z" fill="#ffffff" data-original="#ffffff"></path></g></g></g></svg>
